<mxfile host="app.diagrams.net" agent="Mozilla/5.0 (Windows NT 10.0; Win64; x64) AppleWebKit/537.36 (KHTML, like Gecko) Chrome/137.0.0.0 Safari/537.36" version="27.1.5">
  <diagram name="Страница — 1" id="CXULqUmNx9YOhUhC4xkc">
    <mxGraphModel grid="1" page="1" gridSize="10" guides="1" tooltips="1" connect="1" arrows="1" fold="1" pageScale="1" pageWidth="827" pageHeight="1169" math="0" shadow="0">
      <root>
        <mxCell id="0" />
        <mxCell id="1" parent="0" />
        <mxCell id="qWQkdjZ5Y740RFHdvfB2-15" value="&lt;span style=&quot;font-weight: 700;&quot;&gt;Dim_Customer&lt;/span&gt;" style="swimlane;fontStyle=0;childLayout=stackLayout;horizontal=1;startSize=30;horizontalStack=0;resizeParent=1;resizeParentMax=0;resizeLast=0;collapsible=1;marginBottom=0;whiteSpace=wrap;html=1;" vertex="1" parent="1">
          <mxGeometry x="40" y="40" width="140" height="240" as="geometry" />
        </mxCell>
        <mxCell id="qWQkdjZ5Y740RFHdvfB2-16" value="&lt;span style=&quot;font-family: -apple-system, BlinkMacSystemFont, Roboto, &amp;quot;Helvetica Neue&amp;quot;, Geneva, &amp;quot;Noto Sans Armenian&amp;quot;, &amp;quot;Noto Sans Bengali&amp;quot;, &amp;quot;Noto Sans Cherokee&amp;quot;, &amp;quot;Noto Sans Devanagari&amp;quot;, &amp;quot;Noto Sans Ethiopic&amp;quot;, &amp;quot;Noto Sans Georgian&amp;quot;, &amp;quot;Noto Sans Hebrew&amp;quot;, &amp;quot;Noto Sans Kannada&amp;quot;, &amp;quot;Noto Sans Khmer&amp;quot;, &amp;quot;Noto Sans Lao&amp;quot;, &amp;quot;Noto Sans Osmanya&amp;quot;, &amp;quot;Noto Sans Tamil&amp;quot;, &amp;quot;Noto Sans Telugu&amp;quot;, &amp;quot;Noto Sans Thai&amp;quot;, arial, Tahoma, verdana, sans-serif; font-size: 13px; white-space-collapse: break-spaces; background-color: rgb(255, 255, 255);&quot;&gt;CustomerID &lt;b&gt;(PK)&lt;/b&gt;&lt;/span&gt;" style="text;strokeColor=none;fillColor=none;align=left;verticalAlign=middle;spacingLeft=4;spacingRight=4;overflow=hidden;points=[[0,0.5],[1,0.5]];portConstraint=eastwest;rotatable=0;whiteSpace=wrap;html=1;" vertex="1" parent="qWQkdjZ5Y740RFHdvfB2-15">
          <mxGeometry y="30" width="140" height="30" as="geometry" />
        </mxCell>
        <mxCell id="qWQkdjZ5Y740RFHdvfB2-17" value="&lt;span style=&quot;text-align: center; text-wrap-mode: nowrap;&quot;&gt;Name&lt;/span&gt;" style="text;strokeColor=none;fillColor=none;align=left;verticalAlign=middle;spacingLeft=4;spacingRight=4;overflow=hidden;points=[[0,0.5],[1,0.5]];portConstraint=eastwest;rotatable=0;whiteSpace=wrap;html=1;" vertex="1" parent="qWQkdjZ5Y740RFHdvfB2-15">
          <mxGeometry y="60" width="140" height="30" as="geometry" />
        </mxCell>
        <mxCell id="qWQkdjZ5Y740RFHdvfB2-18" value="&lt;span style=&quot;text-align: center; text-wrap-mode: nowrap;&quot;&gt;Email&lt;/span&gt;" style="text;strokeColor=none;fillColor=none;align=left;verticalAlign=middle;spacingLeft=4;spacingRight=4;overflow=hidden;points=[[0,0.5],[1,0.5]];portConstraint=eastwest;rotatable=0;whiteSpace=wrap;html=1;" vertex="1" parent="qWQkdjZ5Y740RFHdvfB2-15">
          <mxGeometry y="90" width="140" height="30" as="geometry" />
        </mxCell>
        <mxCell id="qWQkdjZ5Y740RFHdvfB2-19" value="&lt;span style=&quot;text-align: center; text-wrap-mode: nowrap;&quot;&gt;Address&lt;/span&gt;" style="text;strokeColor=none;fillColor=none;align=left;verticalAlign=middle;spacingLeft=4;spacingRight=4;overflow=hidden;points=[[0,0.5],[1,0.5]];portConstraint=eastwest;rotatable=0;whiteSpace=wrap;html=1;" vertex="1" parent="qWQkdjZ5Y740RFHdvfB2-15">
          <mxGeometry y="120" width="140" height="30" as="geometry" />
        </mxCell>
        <mxCell id="qWQkdjZ5Y740RFHdvfB2-20" value="&lt;span style=&quot;text-align: center; text-wrap-mode: nowrap;&quot;&gt;StartDate&lt;/span&gt;" style="text;strokeColor=none;fillColor=none;align=left;verticalAlign=middle;spacingLeft=4;spacingRight=4;overflow=hidden;points=[[0,0.5],[1,0.5]];portConstraint=eastwest;rotatable=0;whiteSpace=wrap;html=1;" vertex="1" parent="qWQkdjZ5Y740RFHdvfB2-15">
          <mxGeometry y="150" width="140" height="30" as="geometry" />
        </mxCell>
        <mxCell id="qWQkdjZ5Y740RFHdvfB2-21" value="EndDate" style="text;strokeColor=none;fillColor=none;align=left;verticalAlign=middle;spacingLeft=4;spacingRight=4;overflow=hidden;points=[[0,0.5],[1,0.5]];portConstraint=eastwest;rotatable=0;whiteSpace=wrap;html=1;" vertex="1" parent="qWQkdjZ5Y740RFHdvfB2-15">
          <mxGeometry y="180" width="140" height="30" as="geometry" />
        </mxCell>
        <mxCell id="qWQkdjZ5Y740RFHdvfB2-42" value="IsCurrent" style="text;strokeColor=none;fillColor=none;align=left;verticalAlign=middle;spacingLeft=4;spacingRight=4;overflow=hidden;points=[[0,0.5],[1,0.5]];portConstraint=eastwest;rotatable=0;whiteSpace=wrap;html=1;" vertex="1" parent="qWQkdjZ5Y740RFHdvfB2-15">
          <mxGeometry y="210" width="140" height="30" as="geometry" />
        </mxCell>
        <mxCell id="qWQkdjZ5Y740RFHdvfB2-22" value="&lt;span style=&quot;font-weight: 700;&quot;&gt;Dim_Time&lt;/span&gt;" style="swimlane;fontStyle=0;childLayout=stackLayout;horizontal=1;startSize=30;horizontalStack=0;resizeParent=1;resizeParentMax=0;resizeLast=0;collapsible=1;marginBottom=0;whiteSpace=wrap;html=1;" vertex="1" parent="1">
          <mxGeometry x="250" y="40" width="140" height="150" as="geometry" />
        </mxCell>
        <mxCell id="qWQkdjZ5Y740RFHdvfB2-23" value="&lt;span style=&quot;font-family: -apple-system, BlinkMacSystemFont, Roboto, &amp;quot;Helvetica Neue&amp;quot;, Geneva, &amp;quot;Noto Sans Armenian&amp;quot;, &amp;quot;Noto Sans Bengali&amp;quot;, &amp;quot;Noto Sans Cherokee&amp;quot;, &amp;quot;Noto Sans Devanagari&amp;quot;, &amp;quot;Noto Sans Ethiopic&amp;quot;, &amp;quot;Noto Sans Georgian&amp;quot;, &amp;quot;Noto Sans Hebrew&amp;quot;, &amp;quot;Noto Sans Kannada&amp;quot;, &amp;quot;Noto Sans Khmer&amp;quot;, &amp;quot;Noto Sans Lao&amp;quot;, &amp;quot;Noto Sans Osmanya&amp;quot;, &amp;quot;Noto Sans Tamil&amp;quot;, &amp;quot;Noto Sans Telugu&amp;quot;, &amp;quot;Noto Sans Thai&amp;quot;, arial, Tahoma, verdana, sans-serif; font-size: 13px; white-space-collapse: break-spaces; background-color: rgb(255, 255, 255);&quot;&gt;Date &lt;b&gt;(PK)&lt;/b&gt;&lt;/span&gt;" style="text;strokeColor=none;fillColor=none;align=left;verticalAlign=middle;spacingLeft=4;spacingRight=4;overflow=hidden;points=[[0,0.5],[1,0.5]];portConstraint=eastwest;rotatable=0;whiteSpace=wrap;html=1;" vertex="1" parent="qWQkdjZ5Y740RFHdvfB2-22">
          <mxGeometry y="30" width="140" height="30" as="geometry" />
        </mxCell>
        <mxCell id="qWQkdjZ5Y740RFHdvfB2-24" value="Month" style="text;strokeColor=none;fillColor=none;align=left;verticalAlign=middle;spacingLeft=4;spacingRight=4;overflow=hidden;points=[[0,0.5],[1,0.5]];portConstraint=eastwest;rotatable=0;whiteSpace=wrap;html=1;" vertex="1" parent="qWQkdjZ5Y740RFHdvfB2-22">
          <mxGeometry y="60" width="140" height="30" as="geometry" />
        </mxCell>
        <mxCell id="qWQkdjZ5Y740RFHdvfB2-25" value="Quarter" style="text;strokeColor=none;fillColor=none;align=left;verticalAlign=middle;spacingLeft=4;spacingRight=4;overflow=hidden;points=[[0,0.5],[1,0.5]];portConstraint=eastwest;rotatable=0;whiteSpace=wrap;html=1;" vertex="1" parent="qWQkdjZ5Y740RFHdvfB2-22">
          <mxGeometry y="90" width="140" height="30" as="geometry" />
        </mxCell>
        <mxCell id="qWQkdjZ5Y740RFHdvfB2-43" value="Year" style="text;strokeColor=none;fillColor=none;align=left;verticalAlign=middle;spacingLeft=4;spacingRight=4;overflow=hidden;points=[[0,0.5],[1,0.5]];portConstraint=eastwest;rotatable=0;whiteSpace=wrap;html=1;" vertex="1" parent="qWQkdjZ5Y740RFHdvfB2-22">
          <mxGeometry y="120" width="140" height="30" as="geometry" />
        </mxCell>
        <mxCell id="qWQkdjZ5Y740RFHdvfB2-26" value="&lt;span style=&quot;font-weight: 700;&quot;&gt;Dim_Product&lt;/span&gt;" style="swimlane;fontStyle=0;childLayout=stackLayout;horizontal=1;startSize=30;horizontalStack=0;resizeParent=1;resizeParentMax=0;resizeLast=0;collapsible=1;marginBottom=0;whiteSpace=wrap;html=1;" vertex="1" parent="1">
          <mxGeometry x="250" y="430" width="140" height="120" as="geometry" />
        </mxCell>
        <mxCell id="qWQkdjZ5Y740RFHdvfB2-27" value="&lt;span style=&quot;font-family: -apple-system, BlinkMacSystemFont, Roboto, &amp;quot;Helvetica Neue&amp;quot;, Geneva, &amp;quot;Noto Sans Armenian&amp;quot;, &amp;quot;Noto Sans Bengali&amp;quot;, &amp;quot;Noto Sans Cherokee&amp;quot;, &amp;quot;Noto Sans Devanagari&amp;quot;, &amp;quot;Noto Sans Ethiopic&amp;quot;, &amp;quot;Noto Sans Georgian&amp;quot;, &amp;quot;Noto Sans Hebrew&amp;quot;, &amp;quot;Noto Sans Kannada&amp;quot;, &amp;quot;Noto Sans Khmer&amp;quot;, &amp;quot;Noto Sans Lao&amp;quot;, &amp;quot;Noto Sans Osmanya&amp;quot;, &amp;quot;Noto Sans Tamil&amp;quot;, &amp;quot;Noto Sans Telugu&amp;quot;, &amp;quot;Noto Sans Thai&amp;quot;, arial, Tahoma, verdana, sans-serif; font-size: 13px; white-space-collapse: break-spaces; background-color: rgb(255, 255, 255);&quot;&gt;Product_ID &lt;b&gt;(PK)&lt;/b&gt;&lt;/span&gt;" style="text;strokeColor=none;fillColor=none;align=left;verticalAlign=middle;spacingLeft=4;spacingRight=4;overflow=hidden;points=[[0,0.5],[1,0.5]];portConstraint=eastwest;rotatable=0;whiteSpace=wrap;html=1;" vertex="1" parent="qWQkdjZ5Y740RFHdvfB2-26">
          <mxGeometry y="30" width="140" height="30" as="geometry" />
        </mxCell>
        <mxCell id="qWQkdjZ5Y740RFHdvfB2-28" value="Name" style="text;strokeColor=none;fillColor=none;align=left;verticalAlign=middle;spacingLeft=4;spacingRight=4;overflow=hidden;points=[[0,0.5],[1,0.5]];portConstraint=eastwest;rotatable=0;whiteSpace=wrap;html=1;" vertex="1" parent="qWQkdjZ5Y740RFHdvfB2-26">
          <mxGeometry y="60" width="140" height="30" as="geometry" />
        </mxCell>
        <mxCell id="qWQkdjZ5Y740RFHdvfB2-29" value="Price" style="text;strokeColor=none;fillColor=none;align=left;verticalAlign=middle;spacingLeft=4;spacingRight=4;overflow=hidden;points=[[0,0.5],[1,0.5]];portConstraint=eastwest;rotatable=0;whiteSpace=wrap;html=1;" vertex="1" parent="qWQkdjZ5Y740RFHdvfB2-26">
          <mxGeometry y="90" width="140" height="30" as="geometry" />
        </mxCell>
        <mxCell id="qWQkdjZ5Y740RFHdvfB2-30" value="&lt;span style=&quot;font-weight: 700;&quot;&gt;Fact_Sales&lt;/span&gt;" style="swimlane;fontStyle=0;childLayout=stackLayout;horizontal=1;startSize=30;horizontalStack=0;resizeParent=1;resizeParentMax=0;resizeLast=0;collapsible=1;marginBottom=0;whiteSpace=wrap;html=1;" vertex="1" parent="1">
          <mxGeometry x="250" y="220" width="140" height="180" as="geometry" />
        </mxCell>
        <mxCell id="qWQkdjZ5Y740RFHdvfB2-31" value="&lt;span style=&quot;font-family: -apple-system, BlinkMacSystemFont, Roboto, &amp;quot;Helvetica Neue&amp;quot;, Geneva, &amp;quot;Noto Sans Armenian&amp;quot;, &amp;quot;Noto Sans Bengali&amp;quot;, &amp;quot;Noto Sans Cherokee&amp;quot;, &amp;quot;Noto Sans Devanagari&amp;quot;, &amp;quot;Noto Sans Ethiopic&amp;quot;, &amp;quot;Noto Sans Georgian&amp;quot;, &amp;quot;Noto Sans Hebrew&amp;quot;, &amp;quot;Noto Sans Kannada&amp;quot;, &amp;quot;Noto Sans Khmer&amp;quot;, &amp;quot;Noto Sans Lao&amp;quot;, &amp;quot;Noto Sans Osmanya&amp;quot;, &amp;quot;Noto Sans Tamil&amp;quot;, &amp;quot;Noto Sans Telugu&amp;quot;, &amp;quot;Noto Sans Thai&amp;quot;, arial, Tahoma, verdana, sans-serif; font-size: 13px; white-space-collapse: break-spaces; background-color: rgb(255, 255, 255);&quot;&gt;Date &lt;b&gt;(PK, FK)&lt;/b&gt;&lt;/span&gt;" style="text;strokeColor=none;fillColor=none;align=left;verticalAlign=middle;spacingLeft=4;spacingRight=4;overflow=hidden;points=[[0,0.5],[1,0.5]];portConstraint=eastwest;rotatable=0;whiteSpace=wrap;html=1;" vertex="1" parent="qWQkdjZ5Y740RFHdvfB2-30">
          <mxGeometry y="30" width="140" height="30" as="geometry" />
        </mxCell>
        <mxCell id="qWQkdjZ5Y740RFHdvfB2-32" value="&lt;span style=&quot;font-family: -apple-system, BlinkMacSystemFont, Roboto, &amp;quot;Helvetica Neue&amp;quot;, Geneva, &amp;quot;Noto Sans Armenian&amp;quot;, &amp;quot;Noto Sans Bengali&amp;quot;, &amp;quot;Noto Sans Cherokee&amp;quot;, &amp;quot;Noto Sans Devanagari&amp;quot;, &amp;quot;Noto Sans Ethiopic&amp;quot;, &amp;quot;Noto Sans Georgian&amp;quot;, &amp;quot;Noto Sans Hebrew&amp;quot;, &amp;quot;Noto Sans Kannada&amp;quot;, &amp;quot;Noto Sans Khmer&amp;quot;, &amp;quot;Noto Sans Lao&amp;quot;, &amp;quot;Noto Sans Osmanya&amp;quot;, &amp;quot;Noto Sans Tamil&amp;quot;, &amp;quot;Noto Sans Telugu&amp;quot;, &amp;quot;Noto Sans Thai&amp;quot;, arial, Tahoma, verdana, sans-serif; font-size: 13px; white-space-collapse: break-spaces; background-color: rgb(255, 255, 255);&quot;&gt;CustomerID &lt;b&gt;(PK, FK)&lt;/b&gt;&lt;/span&gt;" style="text;strokeColor=none;fillColor=none;align=left;verticalAlign=middle;spacingLeft=4;spacingRight=4;overflow=hidden;points=[[0,0.5],[1,0.5]];portConstraint=eastwest;rotatable=0;whiteSpace=wrap;html=1;" vertex="1" parent="qWQkdjZ5Y740RFHdvfB2-30">
          <mxGeometry y="60" width="140" height="30" as="geometry" />
        </mxCell>
        <mxCell id="qWQkdjZ5Y740RFHdvfB2-33" value="&lt;span style=&quot;font-family: -apple-system, BlinkMacSystemFont, Roboto, &amp;quot;Helvetica Neue&amp;quot;, Geneva, &amp;quot;Noto Sans Armenian&amp;quot;, &amp;quot;Noto Sans Bengali&amp;quot;, &amp;quot;Noto Sans Cherokee&amp;quot;, &amp;quot;Noto Sans Devanagari&amp;quot;, &amp;quot;Noto Sans Ethiopic&amp;quot;, &amp;quot;Noto Sans Georgian&amp;quot;, &amp;quot;Noto Sans Hebrew&amp;quot;, &amp;quot;Noto Sans Kannada&amp;quot;, &amp;quot;Noto Sans Khmer&amp;quot;, &amp;quot;Noto Sans Lao&amp;quot;, &amp;quot;Noto Sans Osmanya&amp;quot;, &amp;quot;Noto Sans Tamil&amp;quot;, &amp;quot;Noto Sans Telugu&amp;quot;, &amp;quot;Noto Sans Thai&amp;quot;, arial, Tahoma, verdana, sans-serif; font-size: 13px; white-space-collapse: break-spaces; background-color: rgb(255, 255, 255);&quot;&gt;ProductID &lt;b&gt;(PK, FK)&lt;/b&gt;&lt;/span&gt;" style="text;strokeColor=none;fillColor=none;align=left;verticalAlign=middle;spacingLeft=4;spacingRight=4;overflow=hidden;points=[[0,0.5],[1,0.5]];portConstraint=eastwest;rotatable=0;whiteSpace=wrap;html=1;" vertex="1" parent="qWQkdjZ5Y740RFHdvfB2-30">
          <mxGeometry y="90" width="140" height="30" as="geometry" />
        </mxCell>
        <mxCell id="qWQkdjZ5Y740RFHdvfB2-44" value="Quantity_Sold" style="text;strokeColor=none;fillColor=none;align=left;verticalAlign=middle;spacingLeft=4;spacingRight=4;overflow=hidden;points=[[0,0.5],[1,0.5]];portConstraint=eastwest;rotatable=0;whiteSpace=wrap;html=1;" vertex="1" parent="qWQkdjZ5Y740RFHdvfB2-30">
          <mxGeometry y="120" width="140" height="30" as="geometry" />
        </mxCell>
        <mxCell id="qWQkdjZ5Y740RFHdvfB2-45" value="Total_Sales" style="text;strokeColor=none;fillColor=none;align=left;verticalAlign=middle;spacingLeft=4;spacingRight=4;overflow=hidden;points=[[0,0.5],[1,0.5]];portConstraint=eastwest;rotatable=0;whiteSpace=wrap;html=1;" vertex="1" parent="qWQkdjZ5Y740RFHdvfB2-30">
          <mxGeometry y="150" width="140" height="30" as="geometry" />
        </mxCell>
        <mxCell id="qWQkdjZ5Y740RFHdvfB2-34" value="&lt;b&gt;Fact_Restocking&lt;/b&gt;" style="swimlane;fontStyle=0;childLayout=stackLayout;horizontal=1;startSize=30;horizontalStack=0;resizeParent=1;resizeParentMax=0;resizeLast=0;collapsible=1;marginBottom=0;whiteSpace=wrap;html=1;" vertex="1" parent="1">
          <mxGeometry x="500" y="220" width="140" height="120" as="geometry" />
        </mxCell>
        <mxCell id="qWQkdjZ5Y740RFHdvfB2-35" value="&lt;span style=&quot;font-family: -apple-system, BlinkMacSystemFont, Roboto, &amp;quot;Helvetica Neue&amp;quot;, Geneva, &amp;quot;Noto Sans Armenian&amp;quot;, &amp;quot;Noto Sans Bengali&amp;quot;, &amp;quot;Noto Sans Cherokee&amp;quot;, &amp;quot;Noto Sans Devanagari&amp;quot;, &amp;quot;Noto Sans Ethiopic&amp;quot;, &amp;quot;Noto Sans Georgian&amp;quot;, &amp;quot;Noto Sans Hebrew&amp;quot;, &amp;quot;Noto Sans Kannada&amp;quot;, &amp;quot;Noto Sans Khmer&amp;quot;, &amp;quot;Noto Sans Lao&amp;quot;, &amp;quot;Noto Sans Osmanya&amp;quot;, &amp;quot;Noto Sans Tamil&amp;quot;, &amp;quot;Noto Sans Telugu&amp;quot;, &amp;quot;Noto Sans Thai&amp;quot;, arial, Tahoma, verdana, sans-serif; font-size: 13px; white-space-collapse: break-spaces; background-color: rgb(255, 255, 255);&quot;&gt;Date &lt;b&gt;(PK, FK)&lt;/b&gt;&lt;/span&gt;" style="text;strokeColor=none;fillColor=none;align=left;verticalAlign=middle;spacingLeft=4;spacingRight=4;overflow=hidden;points=[[0,0.5],[1,0.5]];portConstraint=eastwest;rotatable=0;whiteSpace=wrap;html=1;" vertex="1" parent="qWQkdjZ5Y740RFHdvfB2-34">
          <mxGeometry y="30" width="140" height="30" as="geometry" />
        </mxCell>
        <mxCell id="qWQkdjZ5Y740RFHdvfB2-36" value="&lt;span style=&quot;font-family: -apple-system, BlinkMacSystemFont, Roboto, &amp;quot;Helvetica Neue&amp;quot;, Geneva, &amp;quot;Noto Sans Armenian&amp;quot;, &amp;quot;Noto Sans Bengali&amp;quot;, &amp;quot;Noto Sans Cherokee&amp;quot;, &amp;quot;Noto Sans Devanagari&amp;quot;, &amp;quot;Noto Sans Ethiopic&amp;quot;, &amp;quot;Noto Sans Georgian&amp;quot;, &amp;quot;Noto Sans Hebrew&amp;quot;, &amp;quot;Noto Sans Kannada&amp;quot;, &amp;quot;Noto Sans Khmer&amp;quot;, &amp;quot;Noto Sans Lao&amp;quot;, &amp;quot;Noto Sans Osmanya&amp;quot;, &amp;quot;Noto Sans Tamil&amp;quot;, &amp;quot;Noto Sans Telugu&amp;quot;, &amp;quot;Noto Sans Thai&amp;quot;, arial, Tahoma, verdana, sans-serif; font-size: 13px; white-space-collapse: break-spaces; background-color: rgb(255, 255, 255);&quot;&gt;ProductID&lt;b&gt; (PK, FK)&lt;/b&gt;&lt;/span&gt;" style="text;strokeColor=none;fillColor=none;align=left;verticalAlign=middle;spacingLeft=4;spacingRight=4;overflow=hidden;points=[[0,0.5],[1,0.5]];portConstraint=eastwest;rotatable=0;whiteSpace=wrap;html=1;" vertex="1" parent="qWQkdjZ5Y740RFHdvfB2-34">
          <mxGeometry y="60" width="140" height="30" as="geometry" />
        </mxCell>
        <mxCell id="qWQkdjZ5Y740RFHdvfB2-46" value="Quantity_Restocked" style="text;strokeColor=none;fillColor=none;align=left;verticalAlign=middle;spacingLeft=4;spacingRight=4;overflow=hidden;points=[[0,0.5],[1,0.5]];portConstraint=eastwest;rotatable=0;whiteSpace=wrap;html=1;" vertex="1" parent="qWQkdjZ5Y740RFHdvfB2-34">
          <mxGeometry y="90" width="140" height="30" as="geometry" />
        </mxCell>
        <mxCell id="qWQkdjZ5Y740RFHdvfB2-38" value="&lt;b&gt;Bridge_Product_Category&lt;/b&gt;" style="swimlane;fontStyle=0;childLayout=stackLayout;horizontal=1;startSize=30;horizontalStack=0;resizeParent=1;resizeParentMax=0;resizeLast=0;collapsible=1;marginBottom=0;whiteSpace=wrap;html=1;" vertex="1" parent="1">
          <mxGeometry x="550" y="40" width="190" height="90" as="geometry" />
        </mxCell>
        <mxCell id="qWQkdjZ5Y740RFHdvfB2-39" value="&lt;span style=&quot;font-family: -apple-system, BlinkMacSystemFont, Roboto, &amp;quot;Helvetica Neue&amp;quot;, Geneva, &amp;quot;Noto Sans Armenian&amp;quot;, &amp;quot;Noto Sans Bengali&amp;quot;, &amp;quot;Noto Sans Cherokee&amp;quot;, &amp;quot;Noto Sans Devanagari&amp;quot;, &amp;quot;Noto Sans Ethiopic&amp;quot;, &amp;quot;Noto Sans Georgian&amp;quot;, &amp;quot;Noto Sans Hebrew&amp;quot;, &amp;quot;Noto Sans Kannada&amp;quot;, &amp;quot;Noto Sans Khmer&amp;quot;, &amp;quot;Noto Sans Lao&amp;quot;, &amp;quot;Noto Sans Osmanya&amp;quot;, &amp;quot;Noto Sans Tamil&amp;quot;, &amp;quot;Noto Sans Telugu&amp;quot;, &amp;quot;Noto Sans Thai&amp;quot;, arial, Tahoma, verdana, sans-serif; font-size: 13px; white-space-collapse: break-spaces; background-color: rgb(255, 255, 255);&quot;&gt;ProductID &lt;b&gt;(FK, PK)&lt;/b&gt;&lt;/span&gt;" style="text;strokeColor=none;fillColor=none;align=left;verticalAlign=middle;spacingLeft=4;spacingRight=4;overflow=hidden;points=[[0,0.5],[1,0.5]];portConstraint=eastwest;rotatable=0;whiteSpace=wrap;html=1;" vertex="1" parent="qWQkdjZ5Y740RFHdvfB2-38">
          <mxGeometry y="30" width="190" height="30" as="geometry" />
        </mxCell>
        <mxCell id="qWQkdjZ5Y740RFHdvfB2-40" value="&lt;span style=&quot;font-family: -apple-system, BlinkMacSystemFont, Roboto, &amp;quot;Helvetica Neue&amp;quot;, Geneva, &amp;quot;Noto Sans Armenian&amp;quot;, &amp;quot;Noto Sans Bengali&amp;quot;, &amp;quot;Noto Sans Cherokee&amp;quot;, &amp;quot;Noto Sans Devanagari&amp;quot;, &amp;quot;Noto Sans Ethiopic&amp;quot;, &amp;quot;Noto Sans Georgian&amp;quot;, &amp;quot;Noto Sans Hebrew&amp;quot;, &amp;quot;Noto Sans Kannada&amp;quot;, &amp;quot;Noto Sans Khmer&amp;quot;, &amp;quot;Noto Sans Lao&amp;quot;, &amp;quot;Noto Sans Osmanya&amp;quot;, &amp;quot;Noto Sans Tamil&amp;quot;, &amp;quot;Noto Sans Telugu&amp;quot;, &amp;quot;Noto Sans Thai&amp;quot;, arial, Tahoma, verdana, sans-serif; font-size: 13px; white-space-collapse: break-spaces; background-color: rgb(255, 255, 255);&quot;&gt;Category &lt;b&gt;(PK)&lt;/b&gt;&lt;/span&gt;" style="text;strokeColor=none;fillColor=none;align=left;verticalAlign=middle;spacingLeft=4;spacingRight=4;overflow=hidden;points=[[0,0.5],[1,0.5]];portConstraint=eastwest;rotatable=0;whiteSpace=wrap;html=1;" vertex="1" parent="qWQkdjZ5Y740RFHdvfB2-38">
          <mxGeometry y="60" width="190" height="30" as="geometry" />
        </mxCell>
        <mxCell id="zOPk8dXmLL0GUtv0jmvd-1" style="edgeStyle=orthogonalEdgeStyle;rounded=0;orthogonalLoop=1;jettySize=auto;html=1;exitX=1;exitY=0.5;exitDx=0;exitDy=0;entryX=0;entryY=0.5;entryDx=0;entryDy=0;" edge="1" parent="1" source="qWQkdjZ5Y740RFHdvfB2-16" target="qWQkdjZ5Y740RFHdvfB2-32">
          <mxGeometry relative="1" as="geometry" />
        </mxCell>
        <mxCell id="zOPk8dXmLL0GUtv0jmvd-3" style="edgeStyle=orthogonalEdgeStyle;rounded=0;orthogonalLoop=1;jettySize=auto;html=1;exitX=0;exitY=0.5;exitDx=0;exitDy=0;entryX=0;entryY=0.5;entryDx=0;entryDy=0;" edge="1" parent="1" source="qWQkdjZ5Y740RFHdvfB2-23" target="qWQkdjZ5Y740RFHdvfB2-31">
          <mxGeometry relative="1" as="geometry" />
        </mxCell>
        <mxCell id="zOPk8dXmLL0GUtv0jmvd-9" style="edgeStyle=orthogonalEdgeStyle;rounded=0;orthogonalLoop=1;jettySize=auto;html=1;exitX=0;exitY=0.5;exitDx=0;exitDy=0;entryX=0;entryY=0.5;entryDx=0;entryDy=0;" edge="1" parent="1" source="qWQkdjZ5Y740RFHdvfB2-33" target="qWQkdjZ5Y740RFHdvfB2-27">
          <mxGeometry relative="1" as="geometry" />
        </mxCell>
        <mxCell id="zOPk8dXmLL0GUtv0jmvd-10" style="edgeStyle=orthogonalEdgeStyle;rounded=0;orthogonalLoop=1;jettySize=auto;html=1;exitX=0;exitY=0.5;exitDx=0;exitDy=0;entryX=1;entryY=0.5;entryDx=0;entryDy=0;" edge="1" parent="1" source="qWQkdjZ5Y740RFHdvfB2-36" target="qWQkdjZ5Y740RFHdvfB2-27">
          <mxGeometry relative="1" as="geometry" />
        </mxCell>
        <mxCell id="zOPk8dXmLL0GUtv0jmvd-11" style="edgeStyle=orthogonalEdgeStyle;rounded=0;orthogonalLoop=1;jettySize=auto;html=1;exitX=0;exitY=0.5;exitDx=0;exitDy=0;entryX=1;entryY=0.5;entryDx=0;entryDy=0;" edge="1" parent="1" source="qWQkdjZ5Y740RFHdvfB2-39" target="qWQkdjZ5Y740RFHdvfB2-27">
          <mxGeometry relative="1" as="geometry" />
        </mxCell>
        <mxCell id="zOPk8dXmLL0GUtv0jmvd-12" style="edgeStyle=orthogonalEdgeStyle;rounded=0;orthogonalLoop=1;jettySize=auto;html=1;exitX=0;exitY=0.5;exitDx=0;exitDy=0;entryX=1;entryY=0.5;entryDx=0;entryDy=0;" edge="1" parent="1" source="qWQkdjZ5Y740RFHdvfB2-35" target="qWQkdjZ5Y740RFHdvfB2-23">
          <mxGeometry relative="1" as="geometry" />
        </mxCell>
      </root>
    </mxGraphModel>
  </diagram>
</mxfile>
